<svg xmlns="http://www.w3.org/2000/svg" viewBox="0 0 1024 1024" width="1024" height="1024">
  <defs>
    <!-- 主背景渐变：深炭到深灰 -->
    <linearGradient id="bgGrad" x1="0%" y1="0%" x2="100%" y2="100%">
      <stop offset="0%"   stop-color="#0d1117"/>
      <stop offset="55%"  stop-color="#161b22"/>
      <stop offset="100%" stop-color="#21262d"/>
    </linearGradient>
    <!-- 内光晕（更克制） -->
    <radialGradient id="innerGlow" cx="35%" cy="30%" r="50%">
      <stop offset="0%"   stop-color="rgba(255,255,255,0.07)"/>
      <stop offset="100%" stop-color="rgba(255,255,255,0)"/>
    </radialGradient>
    <!-- Z字渐变（纯白到浅灰） -->
    <linearGradient id="zGrad" x1="0%" y1="0%" x2="20%" y2="100%">
      <stop offset="0%"   stop-color="#ffffff"/>
      <stop offset="100%" stop-color="rgba(255,255,255,0.82)"/>
    </linearGradient>
    <!-- Z字阴影 -->
    <filter id="zShadow">
      <feDropShadow dx="0" dy="4" stdDeviation="10" flood-color="rgba(0,0,0,0.4)"/>
    </filter>
    <!-- 整体圆角裁切 -->
    <clipPath id="roundClip">
      <rect width="1024" height="1024" rx="230" ry="230"/>
    </clipPath>
  </defs>

  <!-- 底层背景 -->
  <rect width="1024" height="1024" rx="230" ry="230" fill="url(#bgGrad)"/>
  <!-- 内光晕叠加 -->
  <rect width="1024" height="1024" rx="230" ry="230" fill="url(#innerGlow)"/>

  <!-- 装饰：右下角平行线（代表文章行） -->
  <g clip-path="url(#roundClip)" opacity="0.08">
    <rect x="540" y="630" width="340" height="22" rx="11" fill="#ffffff"/>
    <rect x="540" y="672" width="290" height="18" rx="9"  fill="#ffffff"/>
    <rect x="540" y="710" width="320" height="18" rx="9"  fill="#ffffff"/>
    <rect x="540" y="748" width="260" height="18" rx="9"  fill="#ffffff"/>
    <rect x="540" y="786" width="300" height="18" rx="9"  fill="#ffffff"/>
  </g>

  <!-- 装饰：左上角平行线 -->
  <g clip-path="url(#roundClip)" opacity="0.05">
    <rect x="144" y="220" width="240" height="18" rx="9" fill="#ffffff"/>
    <rect x="144" y="252" width="190" height="15" rx="7" fill="#ffffff"/>
    <rect x="144" y="280" width="210" height="15" rx="7" fill="#ffffff"/>
  </g>

  <!-- 主体 Z 字 -->
  <g filter="url(#zShadow)">
    <!-- 顶横 -->
    <rect x="226" y="264" width="572" height="96" rx="48" fill="url(#zGrad)"/>
    <!-- 斜线 -->
    <polygon
      points="748,360 800,360 276,664 224,664"
      fill="url(#zGrad)"
    />
    <!-- 底横 -->
    <rect x="226" y="664" width="572" height="96" rx="48" fill="url(#zGrad)"/>
  </g>

  <!-- 右下角铅笔装饰（全白色调） -->
  <g transform="translate(752,756) rotate(-32)" opacity="0.70">
    <!-- 笔杆 -->
    <rect x="-14" y="-10" width="28" height="100" rx="8" fill="rgba(255,255,255,0.85)"/>
    <!-- 笔帽 -->
    <rect x="-14" y="-22" width="28" height="18" rx="5" fill="rgba(255,255,255,0.4)"/>
    <!-- 笔尖（浅灰，不再鲜艳黄色） -->
    <polygon points="-14,90 14,90 0,124" fill="rgba(255,255,255,0.55)"/>
    <polygon points="0,90 14,90 0,124" fill="rgba(255,255,255,0.35)"/>
  </g>

  <!-- 外框高光线 -->
  <rect x="2" y="2" width="1020" height="1020" rx="229" ry="229"
    fill="none"
    stroke="rgba(255,255,255,0.08)"
    stroke-width="3"/>
</svg>
